<?xml version="1.0" encoding="UTF-8"?>
<svg id="_Слой_1" data-name="Слой 1" xmlns="http://www.w3.org/2000/svg" viewBox="0 0 144 144">
  <defs>
    <style>
      .cls-1 {
        fill: #fff;
      }

      .cls-1, .cls-2, .cls-3, .cls-4 {
        fill-rule: evenodd;
      }

      .cls-5, .cls-2 {
        fill: #122d44;
      }

      .cls-3 {
        fill: #04539e;
      }

      .cls-4 {
        fill: #f91e1e;
      }
    </style>
  </defs>
  <path class="cls-1" d="M72.02,114.94c-18.82,0-34.16-15.3-34.2-34.11v-35.12h-6.1l2.74-6.47-2.74-6.48h3.11l-.09-.36c-.47-1.79-.25-2.59.03-2.94.2-.26.5-.4.92-.4h72.52c.45,0,.8.16,1.02.45.41.53.42,1.53.06,2.88l-.1.37h3.12l-2.74,6.48,2.74,6.47h-6.09v.39s0,34.73,0,34.73c-.04,18.81-15.38,34.11-34.2,34.11Z"/>
  <path class="cls-1" d="M32.35,33.1h2.28s1.34,4.07,1.34,4.07h-1.98l-1.64-4.07Z"/>
  <path class="cls-1" d="M109.37,33.11h2.27s-1.63,4.06-1.63,4.06h-1.98l1.33-4.06Z"/>
  <path class="cls-4" d="M45.23,41.3h-7.32l-1.27-3.97h7.51l1.08,3.97Z"/>
  <path class="cls-3" d="M44.15,37.33h-7.51l-1.24-3.95h7.68l1.07,3.95Z"/>
  <path class="cls-1" d="M43.08,33.38h-7.68c-.29-.92-.36-1.2-.49-1.78,0-.14-.07-.39-.07-.66,0-.63,0-1.51,1.26-1.58h5.89l1.09,4.02Z"/>
  <path class="cls-1" d="M109.11,30.93c-.03,1.09-.21,1.62-.49,2.45h-7.67l1.16-4.02h5.66c1.5,0,1.34,1.57,1.34,1.57Z"/>
  <path class="cls-3" d="M108.87,33.38l-1.26,3.95h-7.8l1.15-3.95h7.92Z"/>
  <path class="cls-4" d="M107.61,37.33l-1.31,3.97h-7.65l1.16-3.97h7.8Z"/>
  <path class="cls-3" d="M105.4,78.78v-36.89h-16.78v15.18c8.11,4.61,14.11,12.48,16.14,21.78l.64-.07h0Z"/>
  <path class="cls-3" d="M77.21,41.89h-10.39v11.19c1.69-.26,3.43-.4,5.2-.4s3.5.14,5.19.41v-11.19Z"/>
  <path class="cls-3" d="M55.41,41.89h-8.43s-8.35,0-8.35,0v37.35h.56c1.94-9.48,7.99-17.51,16.23-22.17v-15.17Z"/>
  <path class="cls-3" d="M37.34,41.28h-3.34l.83-2.04-.84-2.07h1.98l1.37,4.11Z"/>
  <path class="cls-3" d="M106.68,41.28h3.33l-.84-2.06.84-2.06h-1.98l-1.35,4.11Z"/>
  <path class="cls-4" d="M37.54,45.39h-5.19v-.03l1.65-4.08h3.34l.2.61v3.5Z"/>
  <path class="cls-4" d="M105.94,45.39h5.71v-.03l-1.64-4.08h-3.33l-.2.61h-.54v3.5Z"/>
  <path class="cls-2" d="M94.17,66.87l-10.77-8.86-1.24-1.01-.79-2.23c6.47,1.92,12.12,5.77,16.24,10.87-1.15.41-2.31.82-3.44,1.23h0ZM83.4,79.61l-1.79.68-9.35-6.71v-12.67l9.82-3.41,1.31,1.08,10.53,8.65.66,8.09-11.18,4.29h0ZM71.82,73.74l-9.34,6.69-1.9-.7-11.24-4.22.23-8.72,11.02-8.38,1.47-1.13,9.76,3.59v12.88ZM46.21,65.88c3.45-4.36,8.01-7.83,13.25-9.98,1-.42,2.03-.78,3.08-1.09-.21.68-.44,1.37-.64,2.04l-1.31.99-11.27,8.56-3.1-.52h0ZM105.4,78.35c-.46-2-1.1-3.95-1.91-5.81-.85-1.97-1.89-3.85-3.09-5.6-6.16-9.03-16.6-14.98-28.39-14.98h-.01c-2.32,0-4.59.23-6.77.66-2.18.44-4.3,1.09-6.32,1.92-10.13,4.18-17.81,13.02-20.28,23.8v.94l4.51,2.49,6.03-5.87,11.4,4.27,1.77.68.52.92h18.27l.61-1.08,1.65-.63,11.36-4.34,6.84,6.03,3.8-2.98v-.43h0Z"/>
  <path class="cls-5" d="M94.34,35.82l-.58-2.14h-.68l-.58,2.14h1.85ZM91.77,32.1h3.31l1.85,6.51h-1.85l-.34-1.3h-2.63l-.34,1.3h-1.85l1.85-6.51h0ZM82.94,32.1h1.8v2.42h.78l1.66-2.42h2.04l-2.15,3.07,2.29,3.44h-2.04l-1.7-2.51h-.88v2.51h-1.8v-6.51h0ZM75.1,32.1h1.8v3.21l-.15.83h.1l2.48-4.04h2.09v6.51h-1.8v-3.21l.15-.84h-.1l-2.48,4.05h-2.09v-6.5ZM68.09,32.1h6.08v1.58h-2.15v4.93h-1.8v-4.93h-2.14v-1.58h0ZM63.02,32.1h3.31l1.8,6.51h-1.8l-1.37-4.93h-.58l-1.37,4.93h-1.8l1.8-6.51ZM58.08,35.82l-.59-2.14h-.68l-.59,2.14h1.86ZM55.5,32.1h3.31l1.85,6.51h-1.85l-.34-1.3h-2.63l-.34,1.3h-1.85l1.85-6.51h0ZM50.54,37.12c.49,0,.78-.28.78-.61s-.28-.6-.78-.6h-1.65v1.21h1.65ZM47.08,32.1h5.55v1.49h-3.74v.83h1.75c1.61,0,2.53.88,2.53,2.09s-.92,2.09-2.53,2.09h-3.55v-6.51Z"/>
  <path class="cls-3" d="M105.07,84.77c.13-.99.21-1.98.25-2.99H38.69c.04,1.01.13,2.01.25,2.99h66.12Z"/>
  <path class="cls-3" d="M46.55,102.02c1.57,1.86,3.34,3.54,5.28,5.01h40.34c1.94-1.47,3.71-3.15,5.28-5.01h-50.9Z"/>
  <path class="cls-3" d="M53.9,108.49c5.22,3.37,11.43,5.34,18.11,5.34s12.89-1.97,18.1-5.34h-36.21Z"/>
  <path class="cls-3" d="M41.99,94.99c.85,1.77,1.85,3.44,2.99,5.01h54.06c1.13-1.57,2.13-3.24,2.99-5.01h-60.04Z"/>
  <path class="cls-3" d="M39.5,87.9c.34,1.49.78,2.93,1.31,4.34h62.39c.53-1.41.97-2.86,1.31-4.34H39.5Z"/>
  <path class="cls-2" d="M107.77,29.35c.99,0,1.25.68,1.31,1.23.06.55.02,1.05-.25,1.93l-2.85,8.79h-7.11l3.48-11.95h5.42ZM44.94,41.3h-7.03l-1.26-3.97-1.24-3.95c-.3-.92-.37-1.2-.5-1.78,0-.14-.07-.39-.07-.66,0-.63,0-1.51,1.26-1.58h5.59l3.25,11.95h0ZM101.78,29.35l-3.48,11.95h-52.73l-3.27-11.95h59.48ZM37.54,45.39h-5.19v-.02l1.65-4.09.83-2.04-2.48-6.14h2.28s2.91,8.78,2.91,8.78v3.5h0ZM105.94,80.67c-.04,18.66-15.27,33.86-33.93,33.86s-33.88-15.2-33.93-33.86v-38.78h8.9s49.83,0,49.83,0h0s9.12,0,9.12,0v38.78ZM109.37,33.11h0s2.26,0,2.26,0l-2.47,6.12,2.48,6.14v.02h-5.16v-3.53s2.83-8.6,2.87-8.75h0ZM72.02,115.23c18.95,0,34.45-15.44,34.49-34.4v-34.83s6.19,0,6.19,0v-.09l-2.83-6.67,2.83-6.69v-.09h-3.14c.73-2.75-.21-3.68-1.42-3.7H35.67c-1.19.02-1.94.96-1.22,3.7h-3.14v.09l2.82,6.69-2.82,6.67v.09h6.21v34.83c.04,18.95,15.52,34.4,34.5,34.4h0Z"/>
</svg>