<?xml version="1.0" encoding="UTF-8"?>
<svg id="_Слой_1" data-name="Слой 1" xmlns="http://www.w3.org/2000/svg" xmlns:xlink="http://www.w3.org/1999/xlink" viewBox="0 0 144 144">
  <defs>
    <style>
      .cls-1 {
        fill: none;
      }

      .cls-2 {
        fill: #fff;
      }

      .cls-3 {
        fill: #3360ab;
      }

      .cls-4 {
        clip-path: url(#clippath);
      }
    </style>
    <clipPath id="clippath">
      <rect class="cls-1" x="34.13" y="16.07" width="75.74" height="111.86"/>
    </clipPath>
  </defs>
  <g class="cls-4">
    <g>
      <path class="cls-2" d="M34.13,72.01c.07-.11.13-.21.2-.31,4.4-6.51,8.81-13.01,13.21-19.52.21-.32.4-.66.62-.98.48-.7.98-1.37,1.44-2.07,4.59-6.78,9.19-13.56,13.78-20.34,1.15-1.7,2.31-3.4,3.46-5.11.39-.58.79-1.16,1.17-1.74.3-.45.58-.9.88-1.35.12-.18.27-.33.38-.51.31-.47.59-.95.91-1.41.49-.72,1-1.43,1.5-2.14.1-.14.19-.28.31-.45.09.12.16.21.22.3.83,1.22,1.66,2.45,2.49,3.67.81,1.2,1.61,2.39,2.43,3.59.39.57.77,1.15,1.16,1.71.39.57.8,1.12,1.19,1.68.16.23.29.48.44.72.07.12.16.23.24.34.19.28.38.56.57.85.04.05.06.11.1.16.23.31.46.61.68.93.12.17.2.36.31.53,3.11,4.6,6.23,9.21,9.35,13.81,1.21,1.78,2.42,3.57,3.63,5.35.13.19.29.35.41.54.21.32.4.65.61.98.09.14.21.25.3.38.17.26.33.53.51.79.09.14.22.27.31.41.09.14.17.32.28.47.25.35.51.7.76,1.04.12.17.2.36.31.53,3.78,5.59,7.56,11.17,11.34,16.76l.26.39c-.06.1-.12.2-.19.3l-9.34,13.81c-.37.54-.74,1.08-1.1,1.63-.15.22-.26.47-.42.69-.3.43-.62.85-.92,1.29-.18.26-.31.54-.49.8-.57.84-1.16,1.66-1.74,2.49-.24.35-.45.73-.69,1.09-.33.48-.68.94-1.01,1.42-1.14,1.68-2.28,3.36-3.41,5.04-.05.08-.1.16-.18.28.42.04.8.02,1.18.02.38,0,.78,0,1.17,0h1.18v13.71c-.12,0-.24.02-.37.02h-7.35c-.2,0-.41.03-.61.05h-.19c-1-.02-2-.04-3.01-.05-.37,0-.73.04-1.1.05-.1,0-.19.03-.27.08-.08.05-.15.13-.19.21-.18.29-.38.56-.58.85l-.76,1.13c-.07.1-.14.21-.22.31-.02.03-.04.05-.06.07l-.68,1.08c-.07.11-.14.22-.22.32-.22.33-.44.66-.66.98-.15.21-.32.4-.47.62-1.66,2.46-3.33,4.92-4.99,7.38-.05.08-.11.16-.19.27-.08-.11-.15-.2-.21-.3-1.89-2.8-3.79-5.6-5.68-8.39-.15-.22-.34-.42-.49-.64-.31-.47-.61-.97-.93-1.44-.48-.7-.98-1.4-1.46-2.1-.05-.05-.09-.12-.12-.19-.07-.28-.25-.32-.51-.32-3.61,0-7.22,0-10.83,0-.16,0-.32.03-.48.04-.04,0-.09.01-.13.01-.35-.02-.7-.05-1.07-.08-.01-.06-.02-.12-.03-.18-.02-1.08-.03-2.16-.04-3.24,0-.49.03-.97.04-1.46,0-.3-.03-.6-.03-.91,0-.33.03-.67.03-1v-6.93h3.57l-19.5-28.8Z"/>
      <path class="cls-3" d="M34.13,72.01c.07-.11.13-.21.2-.31,4.4-6.51,8.81-13.01,13.21-19.52.21-.32.4-.66.62-.98.48-.7.98-1.37,1.44-2.07,4.59-6.78,9.19-13.56,13.78-20.34,1.15-1.7,2.31-3.4,3.46-5.11.39-.58.79-1.16,1.17-1.74.3-.45.58-.9.88-1.35.12-.18.27-.33.38-.51.31-.47.59-.95.91-1.41.49-.72,1-1.43,1.5-2.14.1-.14.19-.28.31-.45.09.12.16.21.22.3.83,1.22,1.66,2.45,2.49,3.67.81,1.2,1.61,2.39,2.43,3.59.39.57.77,1.15,1.16,1.71.39.57.8,1.12,1.19,1.68.16.23.29.48.44.72.07.12.16.23.24.34.19.28.38.56.57.85.04.05.06.11.1.16.23.31.46.61.68.93.12.17.2.36.31.53,3.11,4.6,6.23,9.21,9.35,13.81,1.21,1.78,2.42,3.57,3.63,5.35.13.19.29.35.41.54.21.32.4.65.61.98.09.14.21.25.3.38.17.26.33.53.51.79.09.14.22.27.31.41.09.14.17.32.28.47.25.35.51.7.76,1.04.12.17.2.36.31.53,3.78,5.59,7.56,11.17,11.34,16.76l.26.39c-.06.1-.12.2-.19.3l-9.34,13.81c-.37.54-.74,1.08-1.1,1.63-.15.22-.26.47-.42.69-.3.43-.62.85-.92,1.29-.18.26-.31.54-.49.8-.57.84-1.16,1.66-1.74,2.49-.24.35-.45.73-.69,1.09-.33.48-.68.94-1.01,1.42-1.14,1.68-2.28,3.36-3.41,5.04-.05.08-.1.16-.18.28.42.04.8.02,1.18.02.38,0,.78,0,1.17,0h1.18v13.71c-.12,0-.24.02-.37.02h-7.35c-.2,0-.41.03-.61.05h-.19c-1-.02-2-.04-3.01-.05-.37,0-.73.04-1.1.05-.1,0-.19.03-.27.08-.08.05-.15.13-.19.21-.18.29-.38.56-.58.85l-.76,1.13c-.07.1-.14.21-.22.31-.02.03-.04.05-.06.07l-.68,1.08c-.07.11-.14.22-.22.32-.22.33-.44.66-.66.98-.15.21-.32.4-.47.62-1.66,2.46-3.33,4.92-4.99,7.38-.05.08-.11.16-.19.27-.08-.11-.15-.2-.21-.3-1.89-2.8-3.79-5.6-5.68-8.39-.15-.22-.34-.42-.49-.64-.31-.47-.61-.97-.93-1.44-.48-.7-.98-1.4-1.46-2.1-.05-.05-.09-.12-.12-.19-.07-.28-.25-.32-.51-.32-3.61,0-7.22,0-10.83,0-.16,0-.32.03-.48.04-.04,0-.09.01-.13.01-.35-.02-.7-.05-1.07-.08-.01-.06-.02-.12-.03-.18-.02-1.08-.03-2.16-.04-3.24,0-.49.03-.97.04-1.46,0-.3-.03-.6-.03-.91,0-.33.03-.67.03-1v-6.93h3.57l-19.5-28.8ZM86.25,100.84h1.06c.08-.02.15-.06.21-.12.06-.06.1-.14.15-.21l19.13-28.26c.05-.08.1-.16.16-.25l-34.95-51.63-34.95,51.63c.08.12.15.23.22.34l17.39,25.68c.59.87,1.17,1.73,1.76,2.6.06.09.1.22.26.22h1.08c-.04-2.69.54-5.19,1.87-7.5,1.29-2.29,3.2-4.17,5.5-5.44,2.28-1.28,4.88-1.89,7.49-1.76,3.42.16,6.44,1.39,8.96,3.72,3.18,2.93,4.69,6.61,4.66,10.98h0s0,0,0,0ZM52.46,112.16h39.06v-8.92h-39.06v8.92ZM65.91,114.58c.26.51,5.93,8.84,6.12,9l5.97-8.82s.04-.08.06-.12v-.03s-.01-.02-.02-.03h-12.13s0,0,0,0ZM81.72,95.32c-.02-.09-.02-.14-.04-.19-.38-1.37-.77-2.74-1.15-4.11-.02-.08-.06-.15-.11-.21-.05-.06-.11-.11-.18-.15-.98-.57-1.96-1.14-2.93-1.72-.07-.05-.15-.07-.24-.08-.08-.01-.17,0-.25.03-1.04.28-2.09.55-3.13.82-.24.06-.47.13-.71.2-.01.05-.02.1-.02.15,0,1.05,0,2.1-.02,3.14,0,.07.02.14.06.2.03.06.08.11.14.15l3.9,3.61c.11.1.22.2.34.3l4.34-2.12h0ZM71.04,89.91c-.09-.03-.14-.05-.19-.06-1.25-.33-2.5-.66-3.75-.99-.07-.02-.15-.02-.22,0-.07.02-.14.05-.2.09-.97.57-1.93,1.14-2.9,1.7-.08.05-.16.11-.21.19-.06.08-.1.16-.12.26-.36,1.3-.72,2.59-1.09,3.89-.03.11-.05.23-.08.35l4.34,2.11c.07-.05.11-.08.15-.11,1.38-1.27,2.75-2.55,4.13-3.82.06-.05.1-.12.13-.2.03-.08.04-.15.03-.23-.01-.47-.02-.95-.02-1.42-.02-.57-.01-1.14-.01-1.74h0ZM82.47,97.07l-4.48,2.19v1.56c.11,0,.19.01.28.01h6.4s.01-.02.01-.02c0,0,0,0,.01-.01,0-.02.01-.04.02-.06-.74-1.21-1.49-2.43-2.25-3.68h0ZM66.02,99.26l-4.48-2.19-2.27,3.73c.43.07,6.51.05,6.75-.02v-1.52s0,0,0,0Z"/>
      <path class="cls-3" d="M64.53,62.67c-.05.72-.25,1.42-.59,2.05-.79,1.47-2.04,2.38-3.64,2.8-1.51.41-3.01.27-4.5-.16-.05-.01-.1-.03-.16-.05-.87-.19-1.53-.7-2.09-1.38-.98-1.19-1.6-2.64-1.78-4.17-.29-2.38.22-4.62,1.27-6.74,1.5-3.05,3.79-5.38,6.68-7.13,2.25-1.34,4.74-2.23,7.33-2.61.1-.02.21-.04.34-.07.06-.3.12-.59.19-.88.37-1.64.9-3.22,1.76-4.68.53-.93,1.22-1.76,2.06-2.44.97-.78,2.17-1.24,3.42-1.31,1.17-.07,2.12.42,2.87,1.29.72.83,1.12,1.82,1.35,2.87.43,1.93.21,3.82-.49,5.66-.04.1-.07.2-.11.3,0,.03,0,.05,0,.08.13.05.26.09.39.14,3.37,1.08,6.38,2.79,8.96,5.21,3.05,2.86,5.12,6.3,6.05,10.39.36,1.63.51,3.31.44,4.98-.07,2.28-.52,4.53-1.32,6.67-1.52,4-4.06,7.18-7.75,9.39-1.96,1.16-4.13,1.93-6.39,2.26-.95.15-1.91.22-2.87.21-1.18-.05-2.34-.26-3.46-.63-1.45-.47-2.86-1.05-4.22-1.74l-.48-.24c-.08.06-.17.13-.25.19-1.39,1.12-2.92,1.95-4.66,2.36-1.7.4-3.38.38-5.03-.22-.83-.29-1.58-.76-2.19-1.4-1.12-1.2-1.36-2.59-.86-4.12.24-.72.74-1.26,1.37-1.67.73-.46,1.57-.74,2.43-.8,1.17-.1,2.3.13,3.4.5,1.34.45,2.66.95,3.99,1.42l.45.16c.14-.32.3-.61.42-.92.47-1.12.77-2.29.9-3.5.15-1.3.31-2.59.44-3.89.08-.8.11-1.61.16-2.42.1-1.64.11-3.28.04-4.91-.04-1.04-.14-2.09-.22-3.13-.06-.71-.14-1.42-.2-2.13,0-.04-.02-.08-.03-.16-1.45.99-2.93,1.89-4.58,2.59-.02-1.48-.04-2.9-.06-4.34.14-.07.25-.13.36-.19l3.51-1.73c.09-.04.17-.09.26-.14.05-.02.08-.05.11-.09.02-.04.03-.09.02-.14-.11-1.02-.23-2.04-.33-3.06-.06-.65-.11-1.31-.16-1.97,0-.04,0-.08-.02-.14-.05,0-.11,0-.16.02-2.48.91-4.45,2.43-5.75,4.77-.72,1.29-1.11,2.73-1.15,4.2-.05.74.02,1.49.21,2.21.45,1.63,1.63,2.54,3.32,2.55.25,0,.5-.01.74-.01.08,0,.17,0,.27.01M70.13,80.32c.11.04.22.06.33.09.59.1,1.19.21,1.79.28.87.11,1.75.09,2.61-.05.84-.16,1.66-.41,2.44-.75,3.52-1.45,6.02-3.92,7.46-7.45.87-2.13,1.25-4.37,1.34-6.66.05-1.34,0-2.68-.17-4.01-.19-1.62-.59-3.2-1.19-4.71-1.27-3.11-3.35-5.51-6.35-7.06-.53-.28-1.08-.52-1.65-.72-1.51,2.3-3.36,4.3-5.38,6.13.55,1.04,1.32,1.96,2.24,2.69,1.24.98,2.66,1.58,4.19,1.95.35.09.71.16,1.08.24-.02.08-.02.15-.04.21-.31,1.05-.62,2.11-.94,3.16-1.03,3.3-2.17,6.55-3.62,9.69-1.11,2.4-2.38,4.7-4.01,6.78-.03.05-.06.1-.12.18h0s0,0,0,0ZM70.93,44.99c1.54.02,3.08.16,4.6.43.02-.06.03-.11.04-.17.13-.95.17-1.91.1-2.87-.04-.33-.11-.66-.23-.97-.1-.25-.28-.45-.52-.57-.24-.12-.51-.16-.77-.1-.38.09-.73.28-1.01.54-1.1,1-1.68,2.3-2.2,3.7h0ZM64.93,81.25c-.94-.49-1.82-.95-2.77-1.29-.52-.18-1.08-.21-1.62-.09-.3.07-.6.17-.88.3-.16.07-.3.18-.41.31-.12.13-.2.28-.26.44-.03.09-.05.18-.05.28.06.82.52,1.35,1.32,1.55.58.15,1.18.17,1.76.06,1.11-.21,2.06-.74,2.91-1.57h0ZM70.22,48.26c-.22,1.13-.11,3.74.19,4.3,1.54-1.06,2.89-2.31,3.88-3.97-1.38-.26-2.72-.45-4.07-.33Z"/>
      <path class="cls-3" d="M57.43,106.59c-.23,1.21-.46,2.42-.7,3.65h-.87c-.24-1.25-.48-2.49-.72-3.74h-.02v3.74h-1.13v-5.13h1.71c.22,1.16.5,2.31.56,3.55.2-1.21.4-2.38.6-3.55h1.75v5.14h-1.18c-.01-1.22-.02-2.43,0-3.65"/>
      <path class="cls-3" d="M84.63,110.24v-4.15h-.79c0,.11-.02.22-.02.33-.01.74-.01,1.49-.04,2.23-.02.3-.06.6-.15.89-.16.56-.5.79-1.08.75-.19-.02-.39-.06-.58-.1v-.84s.03-.03.04-.03c.54.04.53-.13.58-.56.02-.29.03-.58.02-.87v-2.74c.25-.07,2.88-.09,3.24-.02v5.11h-1.22Z"/>
      <path class="cls-3" d="M76.53,105.1h1.34c-.05.12-.09.22-.14.31-.29.58-.58,1.16-.87,1.73-.04.07-.06.15-.06.23,0,.08.01.16.05.23.3.75.6,1.5.9,2.25.05.12.09.24.14.39h-1.29c-.18-.55-.37-1.13-.57-1.73-.12.13-.21.27-.27.44-.06.16-.08.34-.07.51.02.24,0,.49,0,.77h-1.18v-5.13h1.17c.02.61,0,1.23.07,1.85l.8-1.86Z"/>
      <path class="cls-3" d="M62.78,110.24h-1.22c-.06-.33-.13-.65-.2-1h-.94c-.06.34-.11.66-.17,1h-1.23c.37-1.73.74-3.43,1.12-5.15h1.49l1.14,5.15M60.9,106.24l-.06-.02c-.1.67-.19,1.35-.29,2.03h.64c-.1-.68-.19-1.34-.29-2h0s0,0,0,0Z"/>
      <path class="cls-3" d="M67.93,110.24h-1.23c.37-1.72.74-3.41,1.12-5.13h1.5c.37,1.7.75,3.4,1.14,5.13h-1.22c-.06-.33-.12-.64-.18-.95-.31-.07-.64-.08-.95-.02l-.17.98M68.57,106.24h-.06c-.09.67-.19,1.35-.28,2.02h.64l-.3-2.02Z"/>
      <path class="cls-3" d="M78.03,110.24c.38-1.73.74-3.42,1.12-5.13h1.5l1.13,5.13h-1.22c-.06-.33-.13-.65-.19-1h-.94c-.05.32-.11.64-.17.99h-1.23s0,0,0,0ZM80.21,108.27c-.12-.7-.17-1.38-.37-2.03-.09.67-.19,1.34-.28,2.03h.65Z"/>
      <path class="cls-3" d="M90.02,110.24h-1.21c-.06-.32-.13-.65-.2-.99h-.94c-.06.33-.11.66-.17.99h-1.22c.36-1.72.74-3.42,1.11-5.14h1.5c.38,1.7.76,3.41,1.13,5.14h0ZM88.16,106.27h-.07c-.09.65-.19,1.31-.28,1.99h.65c-.1-.67-.2-1.33-.29-1.99Z"/>
      <path class="cls-3" d="M64.08,110.24h-1.18c.05-.14.09-.24.13-.35.3-.68.59-1.37.9-2.04.03-.07.05-.14.05-.21s-.02-.14-.05-.21c-.28-.64-.56-1.29-.83-1.93-.05-.12-.09-.24-.15-.38h1.19c.19.46.37.93.59,1.47.22-.53.4-1.01.59-1.48h1.19c-.05.12-.08.21-.12.31-.28.66-.56,1.33-.86,1.99-.04.08-.06.16-.06.24s.02.17.06.25c.3.66.58,1.32.87,1.98.05.11.09.22.15.38-.23,0-.44.01-.65.02-.21,0-.41,0-.64,0-.18-.5-.35-1-.55-1.56l-.64,1.53h0Z"/>
      <path class="cls-3" d="M71.72,105.11v1.69c0,.29.12.39.4.38.06,0,.13-.01.19-.03.07-.02.13-.05.2-.08v-1.98c.42-.01.81,0,1.22,0v5.15h-1.21v-2.13c-.32.02-.61.05-.89.05-.64,0-1.05-.35-1.15-.99-.02-.19-.04-.39-.03-.58v-1.39s.02-.06.03-.08h1.24,0Z"/>
    </g>
  </g>
</svg>