<svg width="88" height="59" viewBox="0 0 88 59" fill="none" xmlns="http://www.w3.org/2000/svg">
<path d="M35.75 20.6219H39.325L37.565 26.9152L40.37 26.1848L41.965 20.6219H45.32L42.625 30.0619L47.08 23.9933L48.07 20.5657H51.15L49.225 27.2524C49.17 27.4771 48.73 28.9381 49.06 28.9381C49.39 28.9381 50.27 27.421 51.205 25.6229C52.25 23.7124 53.13 21.6895 53.57 20.5657H56.815L55.22 26.241L59.345 20.5657H87.945L18.975 50.74L20.35 45.9638L74.525 23.319H63.965L62.92 26.859L59.565 27.9267L60.94 23.319H59.29L54.615 29.5L51.7 30.5114C51.865 28.9943 52.085 27.5333 52.47 26.0724L51.095 28.6571C49.995 30.68 49.115 32.3095 47.465 32.3095C46.255 32.3095 45.705 31.1857 45.705 29.6686C45.705 29.1629 45.76 28.5448 45.925 27.9829L41.525 33.9952L37.895 35.2314L39.6 28.7695L36.85 29.5L34.925 36.299L30.965 37.6476L32.725 31.3543L28.71 36.58C27.005 38.8276 25.245 40.0076 23.87 40.0076C21.175 40.0076 20.79 35.4562 21.065 33.6581C19.58 34.3324 19.085 34.6133 18.59 34.8943C19.25 44.6152 9.515 58.0448 3.355 58.0448C1.43 58.0448 0 56.5276 0 53.1562C0 48.099 3.685 40.7943 13.64 35.0067C13.365 33.04 12.705 31.3543 11.495 30.2867V30.0619C14.85 27.421 17.435 24.4429 17.435 21.8019C17.435 20.5657 16.5 20.1162 15.51 20.1162C13.64 20.1162 11.165 22.4762 9.845 24.4429H9.13L10.23 20.6219C12.76 17.1943 16.83 15.9581 19.03 15.9581C21.285 15.9581 23.21 16.8571 23.21 19.6105C23.21 22.8695 20.405 26.2971 16.28 28.8819C17.215 30.0057 17.875 31.2419 18.205 32.5905C19.195 32.0848 20.24 31.5229 21.34 31.0171C22.55 25.061 26.73 20.4533 30.415 20.4533C32.285 20.4533 33.11 21.5771 33.11 23.1505C33.11 26.7467 29.92 29.5 25.355 31.9162C25.245 32.759 25.245 33.2086 25.245 33.7143C25.245 35.3438 25.575 36.1305 26.18 36.1305C26.565 36.1305 27.06 35.7371 27.61 35.119L33.715 27.7019L35.75 20.6219ZM4.675 52.0324C4.675 52.819 4.895 54.0552 5.775 54.0552C9.185 54.0552 13.53 44.7838 13.695 37.5352C7.7 41.6933 4.675 47.7619 4.675 52.0324ZM29.425 23.8248C29.425 23.2629 29.205 22.8695 28.875 22.8695C27.94 22.8695 26.62 25.8476 25.85 29.219C28.325 27.6457 29.425 25.5105 29.425 23.8248Z" fill="#009EE1"/>
<path d="M76.835 44.1095L76.945 42.9295H79.805V41.3H75.515L75.075 45.7391C75.57 45.5705 76.175 45.4581 76.56 45.4581C77.66 45.4581 78.32 45.9638 78.32 46.6381C78.32 47.1438 77.825 47.7057 76.945 47.7057C76.285 47.7057 75.515 47.4248 74.965 46.9191L74.745 48.7171C75.35 49.1105 76.175 49.4476 77.055 49.4476C79.09 49.4476 80.245 48.2114 80.245 46.6381C80.245 44.7276 78.485 43.7162 76.835 44.1095Z" fill="#009EE1"/>
<path d="M74.03 43.66C74.03 42.3114 72.985 41.1314 71.115 41.1314C69.355 41.1314 68.2 42.2552 68.2 44.0533V44.1095H70.07V43.9971C70.07 43.1543 70.455 42.7048 71.115 42.7048C71.665 42.7048 72.05 43.0981 72.05 43.66C72.05 44.0533 71.83 44.4467 71.445 44.9524L67.925 49.2229H73.92V47.5371H71.5L72.93 45.9638C73.645 45.121 74.03 44.5029 74.03 43.66Z" fill="#009EE1"/>
<path d="M57.31 43.0981H59.015V49.2229H60.94V41.3H58.245L57.31 43.0981Z" fill="#009EE1"/>
<path d="M64.735 41.0752C62.865 41.0752 61.71 42.3676 61.71 43.9971C61.71 45.5143 62.865 46.5257 64.13 46.5257C64.405 46.5257 64.57 46.5257 64.845 46.4695L63.03 49.2229H65.23L66.33 47.5371C67.21 46.1886 67.705 45.1771 67.705 43.9971C67.705 42.3114 66.605 41.0752 64.735 41.0752ZM64.735 45.1771C64.075 45.1771 63.525 44.7276 63.525 43.941C63.525 43.2667 63.965 42.7048 64.735 42.7048C65.45 42.7048 65.945 43.2667 65.945 43.941C65.89 44.6714 65.45 45.1771 64.735 45.1771Z" fill="#009EE1"/>
<path d="M37.95 0.955238L39.545 6.01238H44.715L40.535 9.10286L42.13 14.16L37.95 11.0695L33.715 14.16L35.31 9.10286L31.13 6.01238H36.3L37.95 0.955238Z" fill="#D0AF2C"/>
<path d="M53.79 0.955238L55.385 6.01238H60.61L56.375 9.10286L58.025 14.16L53.79 11.0695L49.61 14.16L51.205 9.10286L46.97 6.01238H52.195L53.79 0.955238Z" fill="#D0AF2C"/>
</svg>
