<?xml version="1.0" encoding="UTF-8"?>
<svg id="_Слой_1" data-name="Слой 1" xmlns="http://www.w3.org/2000/svg" xmlns:xlink="http://www.w3.org/1999/xlink" viewBox="0 0 144 144">
  <defs>
    <style>
      .cls-1 {
        fill: none;
      }

      .cls-2 {
        mask: url(#mask);
      }

      .cls-3 {
        fill: url(#_Безымянный_градиент);
      }

      .cls-4 {
        fill: url(#_Безымянный_градиент_2);
      }

      .cls-5 {
        fill: #0a67cc;
      }

      .cls-6 {
        fill: #bcbec0;
      }

      .cls-7 {
        mask: url(#mask-2);
      }

      .cls-8 {
        mask: url(#mask-1);
      }

      .cls-9 {
        fill: #fff;
      }

      .cls-10 {
        fill: #001e59;
      }

      .cls-11 {
        clip-path: url(#clippath);
      }
    </style>
    <clipPath id="clippath">
      <rect class="cls-1" x="26.38" y="26.38" width="91.24" height="91.24"/>
    </clipPath>
    <linearGradient id="_Безымянный_градиент" data-name="Безымянный градиент" x1="72" y1="28.38" x2="72" y2="119.62" gradientTransform="translate(0 146) scale(1 -1)" gradientUnits="userSpaceOnUse">
      <stop offset="0" stop-color="#e6e7e8"/>
      <stop offset=".5" stop-color="#6d6e71"/>
      <stop offset="1" stop-color="#e6e7e8"/>
    </linearGradient>
    <mask id="mask" x="17.26" y="17.26" width="109.49" height="109.49" maskUnits="userSpaceOnUse">
      <g id="mask0_10798_4142" data-name="mask0 10798 4142">
        <path class="cls-9" d="M17.26,17.26h109.49v109.49H17.26V17.26Z"/>
      </g>
    </mask>
    <linearGradient id="_Безымянный_градиент_2" data-name="Безымянный градиент 2" x1="72" y1="49.27" x2="72" y2="98.73" gradientTransform="translate(0 146) scale(1 -1)" gradientUnits="userSpaceOnUse">
      <stop offset="0" stop-color="#e6e7e8"/>
      <stop offset=".5" stop-color="#6d6e71"/>
      <stop offset="1" stop-color="#e6e7e8"/>
    </linearGradient>
    <mask id="mask-1" x="17.26" y="17.26" width="109.49" height="109.49" maskUnits="userSpaceOnUse">
      <g id="mask1_10798_4142" data-name="mask1 10798 4142">
        <path class="cls-9" d="M17.26,17.26h109.49v109.49H17.26V17.26Z"/>
      </g>
    </mask>
    <mask id="mask-2" x="48.41" y="48.41" width="47.18" height="47.18" maskUnits="userSpaceOnUse">
      <g id="mask2_10798_4142" data-name="mask2 10798 4142">
        <path class="cls-9" d="M49.59,72c0,12.38,10.03,22.41,22.41,22.41s22.41-10.03,22.41-22.41-10.03-22.41-22.41-22.41-22.41,10.03-22.41,22.41Z"/>
      </g>
    </mask>
  </defs>
  <g class="cls-11">
    <g>
      <path class="cls-3" d="M39.74,39.74c-8.62,8.62-13.36,20.07-13.36,32.26s4.74,23.64,13.36,32.26c8.62,8.62,20.07,13.36,32.26,13.36s23.64-4.75,32.26-13.36c8.62-8.62,13.36-20.07,13.36-32.26s-4.75-23.64-13.36-32.26c-8.62-8.62-20.07-13.36-32.26-13.36s-23.64,4.75-32.26,13.36ZM43.26,100.74c-7.68-7.68-11.9-17.88-11.9-28.74s4.23-21.06,11.9-28.74c7.67-7.68,17.88-11.9,28.74-11.9s21.06,4.23,28.74,11.9c7.68,7.68,11.9,17.88,11.9,28.74s-4.23,21.06-11.9,28.74c-7.68,7.67-17.88,11.9-28.74,11.9s-21.06-4.23-28.74-11.9Z"/>
      <g class="cls-2">
        <g>
          <path class="cls-10" d="M115.13,72c0,23.82-19.31,43.13-43.13,43.13s-43.13-19.31-43.13-43.13,19.31-43.13,43.13-43.13,43.13,19.31,43.13,43.13Z"/>
          <path class="cls-9" d="M96.73,72c0,13.66-11.07,24.73-24.73,24.73s-24.73-11.07-24.73-24.73,11.07-24.73,24.73-24.73,24.73,11.07,24.73,24.73Z"/>
          <path class="cls-9" d="M42.5,86.78l-2.75,1.34c.22.44.48.75.79.92.42.23.88.23,1.36,0,.52-.25.8-.63.86-1.12.04-.32-.05-.7-.26-1.13ZM39.43,87.46l2.75-1.34c-.21-.43-.45-.73-.73-.9-.42-.26-.89-.27-1.41-.01-.49.24-.77.59-.85,1.07-.06.34.02.74.24,1.18ZM36.81,88.74l2.04-.99c-.32-.66-.42-1.28-.29-1.84.14-.61.52-1.07,1.15-1.37.62-.3,1.21-.32,1.78-.06.52.23.94.69,1.28,1.37l2.24-1.09.32.66-2.24,1.09c.33.68.43,1.3.29,1.85-.14.6-.52,1.06-1.14,1.36-.63.31-1.22.33-1.79.06-.52-.24-.95-.7-1.27-1.36l-2.04.99-.32-.66Z"/>
          <path class="cls-9" d="M39.92,94.18l2.99-.58,1.88-3.85.5.66-1.51,3.01,3.23-.73.49.65-7.09,1.48-.49-.65Z"/>
          <path class="cls-9" d="M50.1,96.87l-.94-.92-2.48,2.54-.52-.51,2.48-2.54-.95-.92.47-.48,2.41,2.36-.47.48Z"/>
          <path class="cls-9" d="M53.49,99.8c-.07-.39-.28-.71-.61-.95-.34-.24-.7-.33-1.1-.27-.4.06-.74.29-1.02.69-.28.4-.39.79-.31,1.19.08.4.28.71.61.95.33.24.7.33,1.09.27.4-.06.74-.28,1.02-.68.29-.4.39-.8.32-1.19ZM55.92,96.8l.66.47c-.21.16-.43.26-.68.3-.25.04-.45.04-.6,0-.15-.04-.32-.09-.51-.17-.03-.01-.11-.05-.23-.1-.12-.05-.22-.09-.28-.11-.07-.02-.15-.05-.26-.09-.11-.04-.21-.06-.31-.07-.1-.01-.19-.02-.29-.02-.32.01-.65.11-.98.3-.33.19-.62.44-.86.76h.02c.55-.23,1.11-.14,1.7.27.51.37.81.84.91,1.43.09.59-.05,1.14-.41,1.65-.37.52-.85.82-1.44.92-.59.1-1.16-.06-1.72-.45-.48-.34-.77-.77-.88-1.27-.13-.63.09-1.36.68-2.18,1.03-1.44,2.02-2.15,2.99-2.13.07,0,.15,0,.23.02.08,0,.16.02.24.04.08.02.15.04.21.05.06.01.13.04.23.07.09.04.16.06.19.08.04.01.11.04.21.09.1.05.17.07.2.08.26.11.46.16.61.16.15,0,.28-.03.39-.11Z"/>
          <path class="cls-9" d="M58.88,102.72c-.14-.37-.4-.65-.78-.82-.37-.18-.75-.19-1.13-.06-.38.13-.67.42-.88.86-.21.44-.24.85-.09,1.23.15.37.41.65.77.82.37.17.74.19,1.12.06.38-.13.67-.41.88-.86.21-.45.24-.86.1-1.23ZM58.22,105.44c-.56.2-1.13.17-1.72-.1-.58-.27-.98-.69-1.18-1.25-.21-.56-.18-1.13.09-1.7.27-.58.69-.98,1.25-1.18.56-.2,1.13-.17,1.72.11.58.27.98.68,1.18,1.25.21.56.17,1.13-.1,1.71-.27.58-.68.97-1.24,1.17Z"/>
          <path class="cls-9" d="M65.09,103.72l-1.09,4.07-.71-.19.92-3.42-1.45-.39-.49,1.83c-.14.53-.35.89-.63,1.09-.31.22-.68.28-1.1.17-.05-.01-.12-.04-.21-.08l.17-.65c.06.03.11.05.15.06.23.06.42.02.58-.13.13-.12.24-.34.32-.66l.67-2.48,2.86.77Z"/>
          <path class="cls-9" d="M67.33,107.68l.68.08c.3.03.52.02.66-.04.2-.1.31-.27.33-.5.03-.24-.04-.43-.2-.55-.11-.09-.32-.16-.63-.19l-.69-.08-.14,1.29ZM66.53,108.25l.47-4.19.73.08-.18,1.6.75.08c.58.07.99.25,1.23.56.19.24.27.54.22.91-.04.39-.2.69-.48.9-.28.21-.7.28-1.27.22l-1.46-.16Z"/>
          <path class="cls-9" d="M71.8,108.66l-.18-4.21.73-.03.07,1.72,1.99-.08-.07-1.73.73-.03.18,4.21-.73.03-.08-1.82-1.99.08.08,1.82-.73.03Z"/>
          <path class="cls-9" d="M81.52,107.39l-.94-4.11.71-.16.94,4.11-.71.16ZM78.58,107.4l.66-.15c.3-.07.5-.15.61-.25.15-.16.2-.35.15-.59-.05-.24-.18-.39-.37-.46-.14-.05-.36-.04-.66.02l-.67.15.29,1.27ZM78.01,108.19l-.94-4.11.71-.16.36,1.58.73-.17c.57-.13,1.02-.09,1.34.12.26.16.43.43.51.79.09.38.04.72-.16,1-.19.29-.57.49-1.13.62l-1.44.33Z"/>
          <path class="cls-9" d="M83.21,102.46l.67-.29,1.11,2.55,1.41-4,1.81,4.16-.67.29-1.12-2.58-1.41,4-1.8-4.13ZM82.82,100.65l.47-.46c.27.32.62.4,1.03.21.42-.18.6-.48.55-.9l.65-.03c.02.32-.05.62-.22.88-.17.27-.42.47-.74.61-.32.14-.64.18-.95.12-.31-.06-.57-.2-.79-.44Z"/>
          <path class="cls-9" d="M90.6,98.55l.58-.45,1.06,1.37.29-2.41.71-.55-.3,2.6,3.05.59-.75.58-2.43-.46-.05.3,1,1.29-.58.45-2.58-3.33Z"/>
          <path class="cls-9" d="M96.63,93.07l3.07,2.89-.5.53-2.58-2.43-1.03,1.09,1.38,1.3c.4.38.62.73.67,1.07.05.38-.07.73-.37,1.05-.04.04-.09.09-.17.15l-.49-.46c.06-.04.1-.08.13-.1.16-.17.22-.36.16-.57-.04-.17-.19-.37-.43-.6l-1.87-1.76,2.03-2.16Z"/>
          <path class="cls-9" d="M103.28,95.21l-1.51-2.64-4.25-.53.47-.69,3.33.45-1.73-2.83.45-.67,3.69,6.24-.46.67Z"/>
          <path class="cls-9" d="M102.82,84.71c-.37.15-.64.41-.81.79-.17.38-.18.75-.05,1.13.14.38.43.67.88.87.44.2.85.22,1.23.07.37-.15.64-.41.81-.78.17-.37.18-.75.05-1.12-.13-.38-.42-.67-.87-.87-.45-.2-.86-.23-1.23-.08ZM99.4,82.93l.33-.74c.2.17.34.37.42.61.08.23.12.43.12.59,0,.16-.02.34-.06.53,0,.03-.02.12-.05.25-.02.13-.04.23-.05.3,0,.07-.02.16-.03.27-.01.11-.02.22,0,.32,0,.1.02.19.04.28.07.31.24.62.49.9.25.29.56.52.91.69v-.02c-.34-.49-.36-1.06-.07-1.71.26-.57.67-.96,1.23-1.17.56-.21,1.13-.18,1.7.08.58.26.98.67,1.18,1.23.21.56.17,1.15-.11,1.78-.24.54-.6.91-1.08,1.11-.59.26-1.35.17-2.27-.24-1.61-.72-2.51-1.56-2.68-2.51-.01-.07-.02-.15-.03-.22,0-.08,0-.16,0-.24,0-.08,0-.15,0-.21,0-.06.01-.14.03-.24.02-.1.03-.17.04-.21,0-.04.02-.11.05-.23.02-.11.04-.18.04-.21.06-.27.07-.48.04-.63-.03-.15-.09-.27-.19-.36Z"/>
          <path class="cls-9" d="M43.83,60.18c-.7,1.66-1.44,2.37-2.46,2.37-.44,0-.96-.13-1.58-.39-2.03-.85-2.38-1.93-1.39-4.27.7-1.65,1.43-2.36,2.45-2.36.44,0,.96.13,1.58.39,1.03.43,1.61.93,1.82,1.55.22.65.09,1.51-.41,2.71ZM43.17,54.15c-.89-.38-1.66-.56-2.35-.56-1.75,0-3.05,1.14-4.08,3.59-.77,1.82-.92,3.25-.45,4.38.41.99,1.29,1.75,2.76,2.37.89.38,1.66.56,2.36.56,1.76,0,3.06-1.14,4.1-3.6,1.42-3.38.71-5.45-2.33-6.73Z"/>
          <path class="cls-9" d="M46.54,50.31l-2.05-2.01,2.34-2.39c.48-.49.86-.71,1.2-.71.3,0,.61.17.98.53.39.38.57.71.56,1.02-.01.33-.23.7-.69,1.17l-2.34,2.39ZM48.17,43.27c-.87,0-1.78.51-2.85,1.59l-3.47,3.54,6.56,6.42,1.34-1.37-1.92-1.88,2.11-2.15c.98-1,1.47-1.84,1.54-2.65.07-.82-.29-1.59-1.13-2.42-.74-.73-1.46-1.08-2.18-1.08Z"/>
          <path class="cls-9" d="M56.7,45.34l-.91-1.86,5.18-2.54-.8-1.62-5.18,2.54-.74-1.51,5.48-2.69-.8-1.62-7.2,3.53,4.04,8.24,7.28-3.57-.8-1.62-5.56,2.72Z"/>
          <path class="cls-9" d="M71.43,33.88l.32,3.47-5.89.54-.31-3.47-1.91.17.83,9.13,1.91-.17-.35-3.87,5.89-.54.35,3.87,1.91-.17-.83-9.13-1.91.17Z"/>
          <path class="cls-9" d="M78.29,41.94l.52-1.84,3.19.9c.93.26,1.17.57.97,1.28-.17.6-.47.68-.77.68-.19,0-.42-.04-.72-.12l-3.19-.9ZM75.96,43.16l4.69,1.31c.78.22,1.37.32,1.86.32,1.21,0,1.92-.62,2.31-2,.55-1.95-.18-2.94-2.68-3.64l-2.84-.8.5-1.77,5.45,1.53.49-1.74-7.29-2.04-2.48,8.83Z"/>
          <path class="cls-9" d="M97.19,43.25l-1.52-1.07-2.45,3.49-2.22-1.56c-.51-.36-.8-.68-.89-.99-.08-.3,0-.62.29-1.02l1.7-2.42-1.52-1.07-1.7,2.42c-1.23,1.75-.87,3.12,1.21,4.57l2.13,1.49-.17.24c-.28.39-.46.58-.74.58-.35,0-.88-.27-1.74-.87-.88-.62-1.51-1.1-1.53-1.64v-.11s-1.78-1.24-1.78-1.24l-.06.36c-.28,1.62.3,2.61,2.37,4.06,1.29.91,2.2,1.31,2.95,1.31.95,0,1.55-.66,2.05-1.38l3.62-5.16Z"/>
          <path class="cls-9" d="M100.22,49.22l1.94,2.73c.38.53.54.93.5,1.26-.04.31-.26.6-.7.92-.37.26-.67.39-.93.39-.39,0-.76-.28-1.2-.9l-1.94-2.73,2.34-1.66ZM101.08,56.46c.61,0,1.26-.25,1.98-.76,1.84-1.31,1.96-2.82.39-5.04l-2.87-4.04-7.48,5.31,1.11,1.56,2.19-1.56,1.75,2.46c1,1.41,1.93,2.07,2.93,2.07Z"/>
          <path class="cls-9" d="M107.45,57.84l-8.79,2.64.55,1.84,7.05-2.12,1.63,5.42,1.73-.52-2.18-7.26Z"/>
        </g>
      </g>
      <path class="cls-4" d="M47.27,72c0,13.66,11.07,24.73,24.73,24.73s24.73-11.07,24.73-24.73-11.07-24.73-24.73-24.73-24.73,11.07-24.73,24.73ZM56.15,87.84c-4.23-4.23-6.56-9.86-6.56-15.84s2.33-11.61,6.56-15.84c4.23-4.23,9.86-6.56,15.84-6.56s11.61,2.33,15.85,6.56c4.23,4.23,6.56,9.86,6.56,15.84s-2.33,11.61-6.56,15.84c-4.23,4.23-9.86,6.56-15.85,6.56s-11.61-2.33-15.84-6.56Z"/>
      <g class="cls-8">
        <g>
          <path class="cls-6" d="M36.91,77.01h-.84v-5.8h-.65v-.76h1.49v6.55Z"/>
          <path class="cls-6" d="M40.25,72.44c0-.84-.18-1.26-.55-1.26-.07,0-.14.01-.19.04-.06.03-.1.07-.14.12-.04.06-.07.11-.09.16-.03.05-.05.12-.06.21-.02.09-.03.16-.04.21,0,.05-.02.13-.02.24,0,.11,0,.17,0,.2v.17c0,.81.18,1.21.55,1.21.07,0,.14-.01.19-.03.06-.02.1-.06.14-.12.04-.06.07-.11.09-.15.03-.04.05-.11.06-.2.02-.09.03-.16.04-.2.01-.05.02-.12.02-.23,0-.11,0-.17,0-.19v-.17ZM39.76,77.01h-.94c.09-.2.23-.48.42-.86.19-.37.35-.71.5-1.02.14-.3.27-.6.38-.88-.22.18-.44.27-.67.27-.37,0-.66-.16-.87-.48-.18-.29-.27-.78-.27-1.46,0-.24,0-.45.02-.62.01-.17.05-.37.1-.58.05-.21.13-.39.23-.52.1-.13.24-.25.42-.34.18-.09.39-.14.64-.14s.46.05.64.14c.18.1.32.21.42.35.1.14.17.31.23.53.05.22.08.41.1.59.01.18.02.39.02.63,0,.63-.08,1.21-.23,1.73-.15.53-.39,1.12-.71,1.78-.18.39-.32.68-.42.87Z"/>
          <path class="cls-6" d="M105.7,70.34l-1.99,6.56h-.94l1.82-5.81h-1.82v-.75h2.93Z"/>
          <path class="cls-6" d="M107.94,74.94c0-.45-.04-.78-.12-.97-.08-.2-.23-.3-.43-.3s-.35.1-.42.3c-.08.22-.13.54-.13.95,0,.86.18,1.29.55,1.29s.55-.42.55-1.27ZM107.3,70.34h.93c-.08.2-.29.62-.61,1.27-.2.42-.43.94-.67,1.55.24-.2.47-.29.71-.29.41,0,.71.2.9.59.15.29.22.79.22,1.5,0,.23,0,.43-.02.6-.02.17-.05.35-.11.54-.06.19-.13.34-.23.46-.1.12-.24.22-.41.3-.17.08-.38.12-.61.12-.26,0-.47-.05-.65-.14-.18-.1-.32-.21-.42-.34-.1-.13-.18-.31-.23-.53-.06-.22-.09-.41-.1-.6-.01-.18-.02-.39-.02-.63,0-.54.06-1.07.2-1.61.13-.53.28-.98.43-1.33.16-.35.39-.84.7-1.46Z"/>
        </g>
      </g>
      <g class="cls-7">
        <g>
          <path class="cls-6" d="M56.46,50.1c-3.51,0-6.36,2.85-6.36,6.36s2.85,6.36,6.36,6.36,6.36-2.85,6.36-6.36-2.85-6.36-6.36-6.36ZM56.46,63.38c-3.82,0-6.92-3.11-6.92-6.93s3.11-6.92,6.92-6.92,6.92,3.11,6.92,6.92-3.11,6.93-6.92,6.93Z"/>
          <path class="cls-6" d="M55.93,50.1c-1.71,0-3.09,1.39-3.09,3.1v6.54c0,1.71,1.39,3.09,3.09,3.09h1.05c1.71,0,3.1-1.39,3.1-3.09v-6.54c0-1.71-1.39-3.1-3.1-3.1h-1.05ZM56.98,63.38h-1.05c-2.02,0-3.66-1.64-3.66-3.65v-6.54c0-2.02,1.64-3.66,3.66-3.66h1.05c2.02,0,3.66,1.64,3.66,3.66v6.54c0,2.01-1.64,3.65-3.66,3.65Z"/>
          <path class="cls-6" d="M72,50.1c-3.51,0-6.36,2.85-6.36,6.36s2.85,6.36,6.36,6.36,6.36-2.85,6.36-6.36-2.85-6.36-6.36-6.36ZM72,63.38c-3.82,0-6.92-3.11-6.92-6.93s3.11-6.92,6.92-6.92,6.92,3.11,6.92,6.92-3.11,6.93-6.92,6.93Z"/>
          <path class="cls-6" d="M71.47,50.1c-1.71,0-3.09,1.39-3.09,3.1v6.54c0,1.71,1.39,3.09,3.09,3.09h1.05c1.71,0,3.09-1.39,3.09-3.09v-6.54c0-1.71-1.39-3.1-3.09-3.1h-1.05ZM72.52,63.38h-1.05c-2.02,0-3.66-1.64-3.66-3.65v-6.54c0-2.02,1.64-3.66,3.66-3.66h1.05c2.02,0,3.66,1.64,3.66,3.66v6.54c0,2.01-1.64,3.65-3.66,3.65Z"/>
          <path class="cls-6" d="M56.46,65.64c-3.51,0-6.36,2.85-6.36,6.36s2.85,6.36,6.36,6.36,6.36-2.85,6.36-6.36-2.85-6.36-6.36-6.36ZM56.46,78.92c-3.82,0-6.92-3.11-6.92-6.92s3.11-6.92,6.92-6.92,6.92,3.11,6.92,6.92-3.11,6.92-6.92,6.92Z"/>
          <path class="cls-6" d="M55.93,65.64c-1.71,0-3.09,1.39-3.09,3.09v6.54c0,1.71,1.39,3.09,3.09,3.09h1.05c1.71,0,3.1-1.39,3.1-3.09v-6.54c0-1.71-1.39-3.09-3.1-3.09h-1.05ZM56.98,78.92h-1.05c-2.02,0-3.66-1.64-3.66-3.66v-6.54c0-2.02,1.64-3.66,3.66-3.66h1.05c2.02,0,3.66,1.64,3.66,3.66v6.54c0,2.02-1.64,3.66-3.66,3.66Z"/>
          <path class="cls-6" d="M72,65.64c-3.51,0-6.36,2.85-6.36,6.36s2.85,6.36,6.36,6.36,6.36-2.85,6.36-6.36-2.85-6.36-6.36-6.36ZM72,78.92c-3.82,0-6.92-3.11-6.92-6.92s3.11-6.92,6.92-6.92,6.92,3.11,6.92,6.92-3.11,6.92-6.92,6.92Z"/>
          <path class="cls-6" d="M71.47,65.64c-1.71,0-3.09,1.39-3.09,3.09v6.54c0,1.71,1.39,3.09,3.09,3.09h1.05c1.71,0,3.09-1.39,3.09-3.09v-6.54c0-1.71-1.39-3.09-3.09-3.09h-1.05ZM72.52,78.92h-1.05c-2.02,0-3.66-1.64-3.66-3.66v-6.54c0-2.02,1.64-3.66,3.66-3.66h1.05c2.02,0,3.66,1.64,3.66,3.66v6.54c0,2.02-1.64,3.66-3.66,3.66Z"/>
          <path class="cls-6" d="M56.46,81.18c-3.51,0-6.36,2.85-6.36,6.36s2.85,6.36,6.36,6.36,6.36-2.85,6.36-6.36-2.85-6.36-6.36-6.36ZM56.46,94.46c-3.82,0-6.92-3.11-6.92-6.92s3.11-6.92,6.92-6.92,6.92,3.11,6.92,6.92-3.11,6.92-6.92,6.92Z"/>
          <path class="cls-6" d="M55.93,81.18c-1.71,0-3.09,1.39-3.09,3.09v6.54c0,1.71,1.39,3.09,3.09,3.09h1.05c1.71,0,3.1-1.39,3.1-3.09v-6.54c0-1.71-1.39-3.09-3.1-3.09h-1.05ZM56.98,94.46h-1.05c-2.02,0-3.66-1.64-3.66-3.66v-6.54c0-2.02,1.64-3.66,3.66-3.66h1.05c2.02,0,3.66,1.64,3.66,3.66v6.54c0,2.01-1.64,3.66-3.66,3.66Z"/>
          <path class="cls-6" d="M72,81.18c-3.51,0-6.36,2.85-6.36,6.36s2.85,6.36,6.36,6.36,6.36-2.85,6.36-6.36-2.85-6.36-6.36-6.36ZM72,94.46c-3.82,0-6.92-3.11-6.92-6.92s3.11-6.92,6.92-6.92,6.92,3.11,6.92,6.92-3.11,6.92-6.92,6.92Z"/>
          <path class="cls-6" d="M71.47,81.18c-1.71,0-3.09,1.39-3.09,3.09v6.54c0,1.71,1.39,3.09,3.09,3.09h1.05c1.71,0,3.09-1.39,3.09-3.09v-6.54c0-1.71-1.39-3.09-3.09-3.09h-1.05ZM72.52,94.46h-1.05c-2.02,0-3.66-1.64-3.66-3.66v-6.54c0-2.02,1.64-3.66,3.66-3.66h1.05c2.02,0,3.66,1.64,3.66,3.66v6.54c0,2.01-1.64,3.66-3.66,3.66Z"/>
          <path class="cls-6" d="M87.54,50.1c-3.51,0-6.36,2.85-6.36,6.36s2.85,6.36,6.36,6.36,6.36-2.85,6.36-6.36-2.85-6.36-6.36-6.36ZM87.54,63.38c-3.82,0-6.92-3.11-6.92-6.93s3.11-6.92,6.92-6.92,6.92,3.11,6.92,6.92-3.11,6.93-6.92,6.93Z"/>
          <path class="cls-6" d="M87.02,50.1c-1.71,0-3.09,1.39-3.09,3.1v6.54c0,1.71,1.39,3.09,3.09,3.09h1.05c1.71,0,3.09-1.39,3.09-3.09v-6.54c0-1.71-1.39-3.1-3.09-3.1h-1.05ZM88.06,63.38h-1.05c-2.02,0-3.66-1.64-3.66-3.65v-6.54c0-2.02,1.64-3.66,3.66-3.66h1.05c2.02,0,3.66,1.64,3.66,3.66v6.54c0,2.01-1.64,3.65-3.66,3.65Z"/>
          <path class="cls-6" d="M87.54,65.64c-3.51,0-6.36,2.85-6.36,6.36s2.85,6.36,6.36,6.36,6.36-2.85,6.36-6.36-2.85-6.36-6.36-6.36ZM87.54,78.92c-3.82,0-6.92-3.11-6.92-6.92s3.11-6.92,6.92-6.92,6.92,3.11,6.92,6.92-3.11,6.92-6.92,6.92Z"/>
          <path class="cls-6" d="M87.54,81.18c-3.51,0-6.36,2.85-6.36,6.36s2.85,6.36,6.36,6.36,6.36-2.85,6.36-6.36-2.85-6.36-6.36-6.36ZM87.54,94.46c-3.82,0-6.92-3.11-6.92-6.92s3.11-6.92,6.92-6.92,6.92,3.11,6.92,6.92-3.11,6.92-6.92,6.92Z"/>
          <path class="cls-6" d="M87.02,81.18c-1.71,0-3.09,1.39-3.09,3.09v6.54c0,1.71,1.39,3.09,3.09,3.09h1.05c1.71,0,3.09-1.39,3.09-3.09v-6.54c0-1.71-1.39-3.09-3.09-3.09h-1.05ZM88.06,94.46h-1.05c-2.02,0-3.66-1.64-3.66-3.66v-6.54c0-2.02,1.64-3.66,3.66-3.66h1.05c2.02,0,3.66,1.64,3.66,3.66v6.54c0,2.01-1.64,3.66-3.66,3.66Z"/>
          <path class="cls-6" d="M87.02,65.64c-1.71,0-3.09,1.39-3.09,3.09v6.54c0,1.71,1.39,3.09,3.09,3.09h1.05c1.71,0,3.09-1.39,3.09-3.09v-6.54c0-1.71-1.39-3.09-3.09-3.09h-1.05ZM88.06,78.92h-1.05c-2.02,0-3.66-1.64-3.66-3.66v-6.54c0-2.02,1.64-3.66,3.66-3.66h1.05c2.02,0,3.66,1.64,3.66,3.66v6.54c0,2.02-1.64,3.66-3.66,3.66Z"/>
          <path class="cls-10" d="M58.9,54.02c2.77,2.77,5.33,2.44,5.33,2.44,0,0-2.61-.28-5.33,2.44-2.7,2.7-2.44,5.33-2.44,5.33,0,0,.31-2.58-2.44-5.33-2.64-2.64-5.33-2.44-5.33-2.44,0,0,2.56.34,5.33-2.44,2.71-2.71,2.44-5.33,2.44-5.33,0,0-.36,2.54,2.44,5.33Z"/>
          <path class="cls-10" d="M74.44,54.02c2.77,2.77,5.33,2.44,5.33,2.44,0,0-2.61-.28-5.33,2.44-2.7,2.7-2.44,5.33-2.44,5.33,0,0,.31-2.58-2.44-5.33-2.64-2.64-5.33-2.44-5.33-2.44,0,0,2.56.34,5.33-2.44,2.72-2.71,2.44-5.33,2.44-5.33,0,0-.36,2.54,2.44,5.33Z"/>
          <path class="cls-10" d="M58.9,69.56c2.77,2.77,5.33,2.44,5.33,2.44,0,0-2.61-.28-5.33,2.44-2.7,2.7-2.44,5.33-2.44,5.33,0,0,.31-2.58-2.44-5.33-2.64-2.64-5.33-2.44-5.33-2.44,0,0,2.56.33,5.33-2.44,2.71-2.71,2.44-5.33,2.44-5.33,0,0-.36,2.54,2.44,5.33Z"/>
          <path class="cls-10" d="M74.44,69.56c2.77,2.77,5.33,2.44,5.33,2.44,0,0-2.61-.28-5.33,2.44-2.7,2.7-2.44,5.33-2.44,5.33,0,0,.31-2.58-2.44-5.33-2.64-2.64-5.33-2.44-5.33-2.44,0,0,2.56.33,5.33-2.44,2.72-2.71,2.44-5.33,2.44-5.33,0,0-.36,2.54,2.44,5.33Z"/>
          <path class="cls-10" d="M58.9,85.1c2.77,2.77,5.33,2.44,5.33,2.44,0,0-2.61-.28-5.33,2.44-2.7,2.7-2.44,5.33-2.44,5.33,0,0,.31-2.58-2.44-5.33-2.64-2.64-5.33-2.44-5.33-2.44,0,0,2.56.34,5.33-2.44,2.71-2.71,2.44-5.33,2.44-5.33,0,0-.36,2.54,2.44,5.33Z"/>
          <path class="cls-10" d="M74.44,85.1c2.77,2.77,5.33,2.44,5.33,2.44,0,0-2.61-.28-5.33,2.44-2.7,2.7-2.44,5.33-2.44,5.33,0,0,.31-2.58-2.44-5.33-2.64-2.64-5.33-2.44-5.33-2.44,0,0,2.56.34,5.33-2.44,2.72-2.71,2.44-5.33,2.44-5.33,0,0-.36,2.54,2.44,5.33Z"/>
          <path class="cls-10" d="M89.98,54.02c2.77,2.77,5.33,2.44,5.33,2.44,0,0-2.61-.28-5.33,2.44-2.7,2.7-2.44,5.33-2.44,5.33,0,0,.31-2.58-2.44-5.33-2.64-2.64-5.33-2.44-5.33-2.44,0,0,2.56.34,5.33-2.44,2.71-2.71,2.44-5.33,2.44-5.33,0,0-.35,2.54,2.44,5.33Z"/>
          <path class="cls-10" d="M89.98,85.1c2.77,2.77,5.33,2.44,5.33,2.44,0,0-2.61-.28-5.33,2.44-2.7,2.7-2.44,5.33-2.44,5.33,0,0,.31-2.58-2.44-5.33-2.64-2.64-5.33-2.44-5.33-2.44,0,0,2.56.34,5.33-2.44,2.71-2.71,2.44-5.33,2.44-5.33,0,0-.35,2.54,2.44,5.33Z"/>
          <path class="cls-10" d="M89.98,69.56c2.77,2.77,5.33,2.44,5.33,2.44,0,0-2.61-.28-5.33,2.44-2.7,2.7-2.44,5.33-2.44,5.33,0,0,.31-2.58-2.44-5.33-2.64-2.64-5.33-2.44-5.33-2.44,0,0,2.56.33,5.33-2.44,2.71-2.71,2.44-5.33,2.44-5.33,0,0-.35,2.54,2.44,5.33Z"/>
          <path class="cls-5" d="M66.19,72.02c1.01.31,2.3.94,3.57,2.22,1.29,1.29,1.93,2.55,2.25,3.55.32-1.01.95-2.27,2.23-3.55,1.28-1.28,2.53-1.92,3.53-2.23-.99-.31-2.24-.95-3.53-2.25-1.29-1.3-1.94-2.54-2.25-3.53-.32,1-.95,2.26-2.23,3.53-1.31,1.31-2.57,1.95-3.57,2.26ZM72,80.05h0c-.14,0-.26-.11-.28-.25,0,0-.02-.2,0-.52-.06-.92-.44-2.72-2.36-4.64-1.94-1.94-3.91-2.29-4.69-2.34-.3.01-.47,0-.49-.01-.14-.02-.25-.14-.24-.29,0-.14.12-.26.26-.27,0,0,.06,0,.16,0,.1,0,.21,0,.32.01.74-.04,2.66-.34,4.68-2.36,1.86-1.86,2.27-3.66,2.35-4.58-.02-.36,0-.57,0-.59.02-.14.15-.25.28-.24.14,0,.26.11.27.25,0,0,.02.23,0,.59.06.9.45,2.67,2.36,4.58,1.91,1.91,3.69,2.3,4.59,2.36.11,0,.22-.01.32-.01.15,0,.24,0,.25.01.14.02.25.13.25.28,0,.14-.1.26-.24.28-.01,0-.12.02-.31.02-.07,0-.16,0-.26,0-.92.07-2.72.47-4.6,2.35-1.89,1.89-2.28,3.71-2.35,4.64.02.32,0,.51,0,.53-.02.14-.14.25-.28.25Z"/>
          <path class="cls-5" d="M66.19,87.56c1,.31,2.3.94,3.57,2.22,1.29,1.29,1.93,2.55,2.25,3.55.32-1.01.95-2.27,2.23-3.55,1.28-1.28,2.53-1.92,3.53-2.23-.99-.31-2.24-.95-3.53-2.24-1.29-1.29-1.94-2.54-2.25-3.53-.32,1-.95,2.26-2.23,3.53-1.31,1.31-2.57,1.95-3.57,2.26ZM72,95.59h0c-.14,0-.26-.11-.28-.25,0,0-.02-.2,0-.52-.06-.92-.44-2.72-2.36-4.64-1.93-1.94-3.91-2.29-4.68-2.35-.3.01-.47,0-.49-.01-.14-.02-.25-.14-.24-.29,0-.14.12-.26.26-.27,0,0,.06,0,.16,0,.1,0,.21,0,.32.01.74-.04,2.66-.34,4.68-2.36,1.86-1.86,2.27-3.66,2.35-4.58-.02-.36,0-.57,0-.59.02-.14.15-.24.28-.24.14,0,.26.11.27.25,0,0,.02.23,0,.59.06.9.45,2.67,2.36,4.58,1.91,1.91,3.69,2.3,4.59,2.36.11,0,.22-.01.32-.01.15,0,.24,0,.25,0,.14.02.25.13.25.28,0,.14-.1.26-.24.28-.01,0-.12.02-.31.02-.07,0-.16,0-.26,0-.92.07-2.72.47-4.6,2.35-1.89,1.88-2.28,3.71-2.35,4.64.02.32,0,.5,0,.53-.02.14-.14.25-.28.25Z"/>
          <path class="cls-5" d="M50.65,56.48c1.01.31,2.3.95,3.57,2.22,1.29,1.29,1.93,2.55,2.24,3.55.31-1.01.95-2.27,2.23-3.55,1.28-1.28,2.53-1.92,3.54-2.23-.99-.31-2.24-.95-3.54-2.24-1.3-1.3-1.94-2.54-2.25-3.53-.32,1-.95,2.26-2.23,3.53-1.31,1.31-2.57,1.95-3.57,2.26ZM56.46,64.51h0c-.14,0-.26-.11-.28-.25,0,0-.02-.2,0-.52-.06-.92-.44-2.72-2.36-4.64-1.94-1.93-3.91-2.29-4.69-2.35-.3.01-.47,0-.49-.01-.14-.02-.25-.14-.24-.29,0-.14.12-.26.26-.27,0,0,.06,0,.16,0s.21,0,.32.01c.74-.04,2.66-.34,4.68-2.36,1.86-1.86,2.27-3.66,2.35-4.58-.02-.36,0-.57,0-.59.02-.14.14-.24.28-.24.14,0,.26.11.27.25,0,0,.02.23,0,.59.06.9.45,2.67,2.36,4.58,1.91,1.91,3.69,2.3,4.59,2.36.11,0,.22-.01.32-.01.15,0,.24,0,.25.01.14.02.25.13.25.28,0,.14-.1.26-.24.28-.01,0-.12.02-.31.02-.07,0-.16,0-.26,0-.92.07-2.72.47-4.6,2.35-1.88,1.89-2.28,3.71-2.35,4.64.02.32,0,.5,0,.53-.02.14-.14.25-.28.25Z"/>
          <path class="cls-5" d="M66.19,56.48c1,.31,2.3.95,3.57,2.22,1.29,1.29,1.93,2.55,2.25,3.55.32-1.01.95-2.27,2.23-3.55,1.28-1.28,2.53-1.92,3.53-2.23-.99-.31-2.24-.95-3.53-2.24-1.29-1.3-1.94-2.54-2.25-3.53-.32,1-.95,2.26-2.23,3.53-1.31,1.31-2.57,1.95-3.57,2.26ZM72,64.51h0c-.14,0-.26-.11-.28-.25,0,0-.02-.2,0-.52-.06-.92-.44-2.72-2.36-4.64-1.93-1.93-3.91-2.29-4.68-2.35-.3.01-.47,0-.49-.01-.14-.02-.25-.14-.24-.29,0-.14.12-.26.26-.27,0,0,.06,0,.16,0s.21,0,.32.01c.74-.04,2.66-.34,4.68-2.36,1.86-1.86,2.27-3.66,2.35-4.58-.02-.36,0-.57,0-.59.02-.14.14-.24.28-.24.14,0,.26.11.27.25,0,0,.02.23,0,.59.06.9.45,2.67,2.36,4.58,1.91,1.91,3.69,2.3,4.59,2.36.11,0,.22-.01.32-.01.15,0,.24,0,.25.01.14.02.25.13.25.28,0,.14-.1.26-.24.28-.01,0-.12.02-.31.02-.07,0-.16,0-.26,0-.92.07-2.72.47-4.6,2.35-1.89,1.89-2.28,3.71-2.35,4.64.02.32,0,.5,0,.53-.02.14-.14.25-.28.25Z"/>
          <path class="cls-5" d="M50.65,72.02c1.01.31,2.3.94,3.57,2.22,1.29,1.29,1.93,2.55,2.24,3.55.31-1.01.95-2.27,2.23-3.55,1.28-1.28,2.53-1.92,3.54-2.23-.99-.31-2.24-.95-3.54-2.25-1.3-1.3-1.94-2.54-2.25-3.53-.32,1-.95,2.26-2.23,3.53-1.31,1.31-2.57,1.95-3.57,2.26ZM56.46,80.05h0c-.14,0-.26-.11-.28-.25,0,0-.02-.2,0-.52-.06-.92-.44-2.72-2.36-4.64-1.94-1.94-3.91-2.29-4.69-2.34-.3.01-.47,0-.49-.01-.14-.02-.25-.14-.24-.29,0-.14.12-.26.26-.27,0,0,.06,0,.16,0,.1,0,.21,0,.32.01.74-.04,2.66-.34,4.68-2.36,1.86-1.86,2.27-3.66,2.35-4.58-.02-.36,0-.57,0-.59.02-.14.14-.25.28-.24.14,0,.26.11.27.25,0,0,.02.23,0,.59.06.9.45,2.67,2.36,4.58,1.91,1.91,3.69,2.3,4.6,2.36.11,0,.22-.01.32-.01.15,0,.24,0,.25.01.14.02.25.13.25.28,0,.14-.1.26-.24.28-.01,0-.12.02-.31.02-.08,0-.16,0-.26,0-.92.07-2.72.47-4.6,2.35-1.88,1.89-2.28,3.71-2.35,4.64.02.32,0,.51,0,.53-.02.14-.14.25-.28.25Z"/>
          <path class="cls-5" d="M50.65,87.56c1.01.31,2.3.94,3.57,2.22,1.29,1.29,1.93,2.55,2.24,3.55.31-1.01.95-2.27,2.23-3.55,1.28-1.28,2.53-1.92,3.54-2.23-.99-.31-2.24-.95-3.54-2.24-1.3-1.29-1.94-2.54-2.25-3.53-.32,1-.95,2.26-2.23,3.53-1.31,1.31-2.57,1.95-3.57,2.26ZM56.46,95.59h0c-.14,0-.26-.11-.28-.25,0,0-.02-.2,0-.52-.06-.92-.44-2.72-2.36-4.64-1.94-1.94-3.91-2.29-4.69-2.35-.3.01-.47,0-.49-.01-.14-.02-.25-.14-.24-.29,0-.14.12-.26.26-.27,0,0,.06,0,.16,0,.1,0,.21,0,.32.01.74-.04,2.66-.34,4.68-2.36,1.86-1.86,2.27-3.66,2.35-4.58-.02-.36,0-.57,0-.59.02-.14.14-.24.28-.24.14,0,.26.11.27.25,0,0,.02.23,0,.59.06.9.45,2.67,2.36,4.58,1.91,1.91,3.69,2.3,4.6,2.36.11,0,.22-.01.32-.01.15,0,.24,0,.25,0,.14.02.25.13.25.28,0,.14-.1.26-.24.28-.01,0-.12.02-.31.02h0c-.07,0-.16,0-.26,0-.92.07-2.72.47-4.6,2.35-1.88,1.88-2.28,3.71-2.35,4.64.02.32,0,.5,0,.52-.02.14-.14.25-.28.25Z"/>
          <path class="cls-5" d="M81.73,56.48c1.01.31,2.3.95,3.57,2.22,1.29,1.29,1.93,2.55,2.25,3.55.32-1.01.95-2.27,2.23-3.55,1.28-1.28,2.53-1.92,3.53-2.23-.99-.31-2.24-.95-3.53-2.24-1.29-1.3-1.94-2.54-2.25-3.53-.32,1-.95,2.26-2.23,3.53-1.31,1.31-2.57,1.95-3.57,2.26ZM87.54,64.51h0c-.14,0-.26-.11-.28-.25,0,0-.02-.2,0-.52-.06-.92-.44-2.72-2.36-4.64-1.94-1.93-3.91-2.29-4.69-2.35-.3.01-.47,0-.49-.01-.14-.02-.25-.14-.24-.29,0-.14.12-.26.26-.27,0,0,.06,0,.16,0s.21,0,.32.01c.74-.04,2.66-.34,4.68-2.36,1.86-1.86,2.27-3.66,2.35-4.58-.02-.36,0-.57,0-.59.02-.14.14-.24.28-.24.14,0,.26.11.28.25,0,0,.02.23,0,.59.06.9.45,2.67,2.36,4.58,1.91,1.91,3.69,2.3,4.59,2.36.11,0,.22-.01.32-.01.15,0,.24,0,.25.01.14.02.25.13.25.28,0,.14-.1.26-.24.28-.01,0-.12.02-.31.02-.07,0-.16,0-.26,0-.92.07-2.72.47-4.6,2.35-1.89,1.89-2.28,3.71-2.35,4.64.02.32,0,.5,0,.53-.02.14-.14.25-.28.25Z"/>
          <path class="cls-5" d="M81.73,87.56c1.01.31,2.3.94,3.57,2.22,1.29,1.29,1.93,2.55,2.25,3.55.32-1.01.95-2.27,2.23-3.55,1.28-1.28,2.53-1.92,3.53-2.23-.99-.31-2.24-.95-3.53-2.24-1.29-1.29-1.94-2.54-2.25-3.53-.32,1-.95,2.26-2.23,3.53-1.31,1.31-2.57,1.95-3.57,2.26ZM87.54,95.59h0c-.14,0-.26-.11-.28-.25,0,0-.02-.2,0-.52-.06-.92-.44-2.72-2.36-4.64-1.94-1.94-3.91-2.29-4.69-2.35-.3.01-.47,0-.49-.01-.14-.02-.25-.14-.24-.29,0-.14.12-.26.26-.27,0,0,.06,0,.16,0,.1,0,.21,0,.32.01.75-.04,2.66-.34,4.68-2.36,1.86-1.86,2.27-3.66,2.35-4.58-.02-.36,0-.57,0-.59.02-.14.14-.24.28-.24h0c.14,0,.26.11.28.25,0,0,.02.23,0,.59.06.9.45,2.67,2.36,4.58,1.91,1.91,3.69,2.3,4.59,2.36.11,0,.22-.01.32-.01.15,0,.24,0,.25,0,.14.02.25.13.25.28,0,.14-.1.26-.24.28-.01,0-.12.02-.31.02-.08,0-.16,0-.26,0-.92.07-2.72.47-4.6,2.35-1.89,1.88-2.28,3.71-2.35,4.64.02.32,0,.5,0,.52-.02.14-.14.25-.28.25Z"/>
          <path class="cls-5" d="M81.73,72.02c1.01.31,2.3.94,3.57,2.22,1.29,1.29,1.93,2.55,2.25,3.55.32-1.01.95-2.27,2.23-3.55,1.28-1.28,2.53-1.92,3.53-2.23-.99-.31-2.24-.95-3.53-2.25-1.29-1.3-1.94-2.54-2.25-3.53-.32,1-.95,2.26-2.23,3.53-1.31,1.31-2.57,1.95-3.57,2.26ZM87.54,80.05h0c-.14,0-.26-.11-.28-.25,0,0-.02-.2,0-.52-.06-.92-.44-2.72-2.36-4.64-1.94-1.94-3.91-2.29-4.69-2.34-.3.01-.47,0-.49-.01-.14-.02-.25-.14-.24-.29,0-.14.12-.26.26-.27,0,0,.06,0,.16,0,.1,0,.21,0,.32.01.74-.04,2.66-.34,4.68-2.36,1.86-1.86,2.27-3.66,2.35-4.58-.02-.36,0-.57,0-.59.02-.14.14-.25.28-.24.14,0,.26.11.28.25,0,0,.02.23,0,.59.06.9.45,2.67,2.36,4.58,1.91,1.91,3.69,2.3,4.59,2.36.11,0,.22-.01.32-.01.15,0,.24,0,.25.01.14.02.25.13.25.28,0,.14-.1.26-.24.28-.01,0-.12.02-.31.02h0c-.07,0-.16,0-.26,0-.92.07-2.72.47-4.6,2.35-1.89,1.89-2.28,3.71-2.35,4.64.02.32,0,.5,0,.52-.02.14-.14.25-.28.25Z"/>
        </g>
      </g>
    </g>
  </g>
</svg>