<?xml version="1.0" encoding="UTF-8"?>
<svg id="_Слой_1" data-name="Слой 1" xmlns="http://www.w3.org/2000/svg" viewBox="0 0 144 144">
  <defs>
    <style>
      .cls-1 {
        fill: #c5b783;
      }

      .cls-2 {
        fill: #fff;
      }

      .cls-3 {
        fill: #c8102e;
      }
    </style>
  </defs>
  <path class="cls-3" d="M71.98,43.13L8.43,79.84l63.55,36.71,63.58-36.71-63.58-36.71Z"/>
  <path class="cls-1" d="M69.59,32.35l-4.76-.49-1.97-4.4-1.94,4.4-4.79.49,3.56,3.21-.97,4.73,4.14-2.43,4.18,2.43-1-4.73,3.56-3.21Z"/>
  <path class="cls-1" d="M106.14,32.35l-4.76-.49-1.97-4.4-1.94,4.4-4.79.49,3.59,3.21-1,4.73,4.14-2.43,4.18,2.43-1-4.73,3.56-3.21Z"/>
  <path class="cls-1" d="M87.88,32.35l-4.79-.49-1.94-4.4-1.97,4.4-4.76.49,3.56,3.21-1,4.73,4.18-2.43,4.14,2.43-1-4.73,3.59-3.21Z"/>
  <path class="cls-1" d="M51.33,32.35l-4.79-.49-1.94-4.4-1.97,4.4-4.76.49,3.56,3.21-1,4.73,4.18-2.43,4.14,2.43-1-4.73,3.59-3.21Z"/>
  <path class="cls-2" d="M88.14,89.16c-3.95,5.28-10.33,7.96-16.12,7.96-10,0-20.01-5.99-20.01-17.64,0-8.64,7.58-16.8,20.01-16.8,3.98,0,7.87,1.26,10.04,2.2l3.43-1.97v7.77l-2.65,1.52c-2.4-3.4-6.35-5.6-10.81-5.6-7.32,0-13.27,5.92-13.27,13.27s5.92,13.24,13.27,13.27c4.82,0,9.39-2.07,12.59-5.99l3.53,2.01ZM127.63,79.84l-55.62,32.11-55.62-32.11,55.62-32.11,55.62,32.11ZM71.98,107.36l47.65-27.52-15.9-9.16-23.83,13.76v2.75c-2.17,2.33-5.24,3.59-8.38,3.46l1.72-1.23-2.98-3.3-4.34.94.71,2.23c-3.46-1.94-5.54-5.63-5.5-9.52l1.55,1.75,2.98-3.3-1.36-4.24-1.91.84c1.46-2.78,4.08-4.82,7.19-5.54l2.4,1.39,2.4-1.39c3.43.78,6.18,3.14,7.54,6.22l5.96-3.43v-10.59l-15.9-9.16-47.65,27.52,15.9,9.16,9.71-5.6c1.04,5.28,4.18,9.91,9.39,12.95l-3.21,1.85,15.86,9.16Z"/>
  <path class="cls-3" d="M79.95,75.27v-2.77l4.03,1.81s.41.3,1.06,3.11c.3,2.74.13,3.99.13,3.99l-2.79,1.61s1.05-2.18-.01-6.4c-1.8-1.05-2.4-1.35-2.4-1.35Z"/>
  <path class="cls-3" d="M69.07,78.51l3.51-3.87,4.72,2.07-.52,5.24-5.1,1.06-2.6-4.5Z"/>
</svg>